<?xml version="1.0" encoding="UTF-8"?><svg id="a" xmlns="http://www.w3.org/2000/svg" viewBox="0 0 422.39 425.89"><defs><style>.b{fill:#FFE2E2;}</style></defs><path class="b" d="M422.39,242.03c-.37,2.77-.8,5.53-1.29,8.26-.58,3.33-1.25,6.63-1.99,9.9-1.63,7.2-3.63,14.26-5.97,21.17h0c-1.48,4.37-3.09,8.66-4.85,12.89-2.84,6.89-6.04,13.6-9.57,20.1-.54,.99-1.08,1.98-1.63,2.96-.7,1.24-1.41,2.47-2.14,3.7-3.5,5.93-7.27,11.67-11.31,17.21-2.93,4.02-5.99,7.93-9.19,11.73-7.19,8.54-15.04,16.52-23.47,23.84-2.06,1.79-4.16,3.54-6.29,5.25-1.32,1.07-2.65,2.11-4,3.14-10.5,8.03-21.77,15.11-33.68,21.1-.29,.15-.58,.3-.88,.44-13.6,6.77-28.02,12.12-43.08,15.87-2.99,.74-6,1.43-9.04,2.04-11.34,2.3-23.01,3.7-34.93,4.12-2.54,.09-5.09,.14-7.65,.14-10.61,0-21.04-.78-31.23-2.28-1.7-.24-3.39-.51-5.08-.81-3.74-.64-7.45-1.38-11.11-2.21h-.02c-11.32-2.58-22.29-6.05-32.84-10.35-2.2-.89-4.39-1.83-6.55-2.8-13.24-5.92-25.77-13.15-37.42-21.54-.85-.6-1.69-1.22-2.53-1.84,.84-.01,1.68-.03,2.53-.05,1.13-.03,2.27-.07,3.41-.13,5.77-.26,11.7-.83,17.73-1.7,6.88-1,13.9-2.39,20.98-4.21,.62-.16,1.24-.32,1.85-.48,7.28-1.94,14.27-4.24,20.91-6.83,6.29-2.45,12.26-5.16,17.87-8.09,1.72-.68,3.45-1.44,5.19-2.29,6.34-3.1,12.77-7.32,19.09-12.52,.53-.42,1.05-.86,1.57-1.31,5.14,.6,10.36,.91,15.65,.91,2.57,0,5.12-.07,7.65-.21,14.45-.81,28.29-3.91,41.16-8.93,.53-.2,1.05-.41,1.57-.62,.42-.17,.83-.34,1.24-.51,13.99-5.82,26.78-13.94,37.9-23.89l-81.86-40.93h-.01l-26.39-13.2h-.01l-7.68-3.84s-.02,0-.03-.02l-9.85-4.92-39.13-19.57-4.84-2.41-43.97-21.99-9.69-4.84-34.27-17.14L3.96,164.72c.19-.79,.37-1.57,.56-2.36,.25-1.01,.5-2.01,.77-3.02,2.89-11.15,6.66-21.95,11.24-32.31,1.28-2.91,2.63-5.79,4.05-8.64,2.48-5.01,5.15-9.9,8.01-14.67,2.26-3.77,4.62-7.46,7.1-11.07,2.41-3.52,4.92-6.95,7.53-10.31,2.09-2.69,4.25-5.33,6.47-7.91,3.79-4.43,7.76-8.69,11.9-12.79,7.94-7.87,16.5-15.11,25.59-21.64,2.64-1.91,5.32-3.75,8.04-5.52,2.11-1.38,4.25-2.72,6.41-4.02,9.39-5.67,19.26-10.63,29.52-14.81,2.68-1.09,5.39-2.13,8.12-3.11,11.52-4.15,23.5-7.34,35.85-9.45,8.95-1.54,18.09-2.52,27.38-2.9,2.96-.13,5.94-.19,8.93-.19,2.56,0,5.11,.05,7.65,.14,4.93,.17,9.81,.51,14.65,1.02,10,1.03,19.79,2.77,29.32,5.14,10.03,2.5,19.77,5.71,29.18,9.57,5.03,2.06,9.96,4.31,14.78,6.75,4.85,2.43,9.59,5.05,14.21,7.84,4.41,2.65,8.71,5.47,12.9,8.43,.58,.4,1.15,.81,1.72,1.23-1.48,.03-2.98,.08-4.49,.15-7.82,.38-15.98,1.36-24.34,2.97-4.17,.8-8.39,1.76-12.64,2.88-4.09,1.07-8.21,2.3-12.35,3.67-6.59,2.19-12.93,4.67-18.97,7.39-4.28,1.92-8.4,3.96-12.36,6.12-1.71,.7-3.43,1.49-5.16,2.37-4.63,2.35-9.29,5.28-13.93,8.76-2.02,1.51-4.03,3.12-6.04,4.83-2.14-.22-4.31-.39-6.48-.52-2.53-.14-5.08-.21-7.65-.21-8.15,0-16.13,.73-23.88,2.11-4.21,.76-8.36,1.71-12.43,2.86-13.16,3.67-25.49,9.31-36.68,16.56l36.68,18.33,13.79,6.9,6.71,3.35,6.11,3.06,17.35,8.67h.01l43.96,21.99,8.58,4.29,7.85,3.93,14.62,7.3,12.91,6.46h.01l43.96,21.98,43.97,21.99,27.44,13.72Z"/><path class="b" d="M422.22,204.02l-28.96-14.48-43.97-21.98-14.41-7.21-4.97-2.48s-.03-.07-.05-.1c-.03,0-.06,.02-.09,.03l-24.44-12.22h-.01l-.71-.36c.26-1.25,.49-2.49,.71-3.72,.96-5.46,1.59-10.78,1.89-15.9,.05-.67,.08-1.34,.11-2.01,.33-7.73-.09-15-1.27-21.62-.03-.22-.07-.44-.12-.66-.18-1.01-.38-2-.61-2.97-1.63-7.19-4.21-13.51-7.74-18.71-3.4-5.03-7.69-9.01-12.86-11.68-.15-.09-.3-.16-.45-.24-4.8-2.4-10.03-3.53-15.56-3.53,4.37-1.82,8.88-3.51,13.53-5.05,5.58-1.86,11.14-3.43,16.62-4.72,2.17-.52,4.32-.99,6.46-1.4,4.61-.93,9.16-1.65,13.62-2.17,7.34-.88,14.43-1.23,21.16-1.07,3.13,2.42,6.2,4.93,9.19,7.54,5.34,4.63,10.45,9.53,15.3,14.67,2.36,2.49,4.65,5.04,6.88,7.65,4.94,5.74,9.56,11.76,13.86,18.02,1.35,1.96,2.67,3.94,3.95,5.95,1.16,1.81,2.29,3.64,3.39,5.49,.2,.33,.4,.66,.59,.99,.67,1.13,1.34,2.28,1.99,3.43,1.87,3.31,3.65,6.67,5.34,10.08,2.43,4.88,4.67,9.87,6.71,14.96,2.26,5.58,4.28,11.27,6.05,17.08,1.21,3.93,2.31,7.91,3.29,11.93,.74,3.06,1.42,6.15,2.03,9.27,1.75,8.88,2.94,17.95,3.55,27.19Z"/><path class="b" d="M148.89,361.46c-1.35,.53-2.72,1.05-4.11,1.55-5.02,1.83-10.24,3.48-15.63,4.94-.81,.21-1.63,.43-2.45,.64-12.23,3.14-24.25,4.99-35.62,5.64-1.99,.12-3.96,.2-5.9,.24-1.81,.04-3.6,.05-5.37,.03h-.01c-1.06-.01-2.11-.04-3.15-.07-1.6-1.27-3.17-2.56-4.73-3.88-7.41-6.28-14.39-13.05-20.87-20.27-3.42-3.79-6.7-7.71-9.83-11.74-1.36-1.75-2.7-3.52-4-5.32-3.54-4.84-6.87-9.85-9.99-14.99-1.91-3.15-3.74-6.36-5.49-9.62-.9-1.67-1.78-3.36-2.63-5.06-.75-1.47-1.48-2.96-2.19-4.46h0c-1.53-3.25-2.99-6.52-4.36-9.84-.88-2.11-1.72-4.24-2.53-6.39-4.36-11.62-7.74-23.71-10.03-36.19l41.22,20.6,14.86,7.43,5.16,2.58,23.94,11.97,25.5,12.75c-.29,6.39-.05,12.46,.7,18.12,.62,4.67,1.59,9.06,2.91,13.1,3.06,9.44,8.03,17.02,14.86,21.95v.03l.09,.04s.03,.02,.05,.03c1.4,1.01,2.87,1.9,4.42,2.67,1.48,.78,3.08,1.37,4.65,1.86t.02,.01s.01,.01,.02,.01t.02,.01s.01,.01,.02,.01t.02,0s.01,.01,.02,.01t.02,.01c3.31,1.04,6.78,1.56,10.39,1.59Z"/></svg>